<svg width="152" height="19" viewBox="0 0 152 19" fill="none" xmlns="http://www.w3.org/2000/svg">
<path d="M11.9806 0.577515H0V18.3159H4.56V12.1052C4.56 11.8863 4.68768 11.7009 4.91264 11.7009C5.18016 11.7009 11.9776 11.6978 11.9776 11.7009C16.3917 11.7009 18.319 9.10775 18.319 6.13767C18.319 3.16759 16.2488 0.577515 11.9806 0.577515ZM11.6432 7.97991C9.576 7.98903 4.56 7.97991 4.56 7.97991V4.29847H11.6432C13.145 4.29847 13.7469 5.22263 13.7469 6.13767C13.7469 6.82471 13.3426 7.97991 11.6432 7.97991Z" fill="black"/>
<path d="M152 4.28327V0.577515H133.125V4.28327H140.262V18.3159H144.825V4.28327H152Z" fill="black"/>
<path d="M129.483 18.3159H111.161V0.577515L129.474 0.586635V4.28327H115.712V7.62119H127.996V11.2874H115.705V14.6071H129.483V18.3159Z" fill="black"/>
<path d="M92.9206 7.42663V0.577515H88.3545V18.3159H92.9419V11.4425H102.117V18.3159H106.661V0.577515H102.104V7.42663H92.9206Z" fill="black"/>
<path d="M78.3713 0.577515H66.3906V18.3159H70.9506V12.1052C70.9506 11.8863 71.0783 11.7009 71.3033 11.7009C71.5708 11.7009 78.3682 11.6978 78.3682 11.7009C82.7823 11.7009 84.7097 9.10775 84.7097 6.13767C84.7097 3.16759 82.6364 0.577515 78.3682 0.577515H78.3713ZM78.0338 7.97991C75.9666 7.98903 70.9506 7.97991 70.9506 7.97991V4.29847H78.0338C79.5356 4.29847 80.1375 5.22263 80.1375 6.13767C80.1375 6.82471 79.7332 7.97991 78.0338 7.97991Z" fill="black"/>
<path d="M52.9962 0C47.6276 0 43.2378 3.55984 43.2378 9.45136C43.2378 14.9142 47.129 18.8906 52.9962 18.8906C58.3952 18.8906 62.7516 15.2395 62.7516 9.45136C62.7516 3.6632 58.149 0 52.9962 0ZM52.9962 14.9112C49.6978 14.9112 47.81 12.7498 47.81 9.45136C47.81 5.94928 49.8984 3.9824 52.9962 3.9824C55.9328 3.9824 58.1764 5.83376 58.1764 9.45136C58.1764 12.3333 56.6077 14.9112 52.9962 14.9112Z" fill="black"/>
<path d="M35.7871 11.5246C38.8788 10.8892 40.2559 8.64872 40.2559 6.13767C40.2559 3.03992 38.1826 0.577515 33.9145 0.577515H21.9338V18.3159H26.4938V12.1052C26.4938 11.8863 26.6215 11.7039 26.8465 11.7039H30.3911C30.7559 11.7039 30.8684 11.789 31.1025 12.093C31.2362 12.2663 34.6532 16.9175 35.3919 17.9238C35.6047 18.2126 35.7598 18.3159 36.0303 18.3159H40.8244L35.7902 11.5246H35.7871ZM33.7108 7.97991C31.6436 7.98903 26.6276 7.97991 26.6276 7.97991V4.29847H33.7108C35.2126 4.29847 35.8145 5.22263 35.8145 6.13767C35.8145 6.82471 35.4102 7.97991 33.7108 7.97991Z" fill="black"/>
</svg>
